<?xml version="1.0" encoding="UTF-8"?>
<!DOCTYPE svg PUBLIC "-//W3C//DTD SVG 1.1//EN" "http://www.w3.org/Graphics/SVG/1.1/DTD/svg11.dtd">
<!-- Creator: CorelDRAW 2020 (64-Bit) -->
<svg xmlns="http://www.w3.org/2000/svg" xml:space="preserve" width="620px" height="66px" version="1.1" style="shape-rendering:geometricPrecision; text-rendering:geometricPrecision; image-rendering:optimizeQuality; fill-rule:evenodd; clip-rule:evenodd"
viewBox="0 0 371.68 39.69"
 xmlns:xlink="http://www.w3.org/1999/xlink"
 xmlns:xodm="http://www.corel.com/coreldraw/odm/2003">
 <defs>
  <style type="text/css">
   <![CDATA[
    .str0 {stroke:white;stroke-width:0.96;stroke-miterlimit:22.9256}
    .fil1 {fill:none;fill-rule:nonzero}
    .fil0 {fill:#0A0E0C;fill-rule:nonzero}
   ]]>
  </style>
 </defs>
 <g id="Layer_x0020_1">
  <metadata id="CorelCorpID_0Corel-Layer"/>
  <path class="fil0" d="M0 0.18l371.62 -0.06c-4.74,0.39 -12.61,2.47 -19.05,11.19 -2.06,2.76 -3.79,5.37 -5.37,7.81 -7.81,11.84 -12.94,19.65 -36.38,19.65 -84.56,0 -169.14,0.08 -253.69,0.08 -3.47,0 -19.02,-0.79 -28.8,-14.12 -1.42,-1.98 -2.68,-3.79 -3.87,-5.53 -8.91,-12.78 -13.41,-19.25 -24.46,-19.02z"/>
  <path class="fil1 str0" d="M371.64 0.48c-4.74,0.39 -12.61,2.48 -19.06,11.19 -2.05,2.76 -3.78,5.37 -5.36,7.81 -7.81,11.84 -12.94,19.65 -36.38,19.65 -84.56,0 -169.14,0.08 -253.69,0.08 -3.47,0 -19.02,-0.79 -28.8,-14.12 -1.42,-1.98 -2.69,-3.79 -3.87,-5.53 -8.92,-12.78 -13.41,-19.25 -24.46,-19.01"/>
 </g>
</svg>
