<?xml version="1.0" encoding="utf-8"?>
<!-- Generator: Adobe Illustrator 26.1.0, SVG Export Plug-In . SVG Version: 6.00 Build 0)  -->
<svg version="1.1" id="Слой_1" xmlns="http://www.w3.org/2000/svg" xmlns:xlink="http://www.w3.org/1999/xlink" x="0px" y="0px"
	 viewBox="0 0 9.8 11" style="enable-background:new 0 0 9.8 11;" xml:space="preserve">
<style type="text/css">
	.st0{opacity:1;}
	.st1{fill:#FFFFFF;}
</style>
<g class="st0">
	<path class="st1" d="M4.9,2.7c-1.6,0-2.8,1.3-2.8,2.8s1.3,2.8,2.8,2.8s2.8-1.3,2.8-2.8C7.7,3.9,6.5,2.7,4.9,2.7
		C4.9,2.7,4.9,2.7,4.9,2.7z M5.8,7c0,0.1-0.2,0.2-0.3,0.1c0,0,0,0,0,0L4.8,6.5L4.3,6.9c0,0-0.1,0-0.1,0l0.1-0.8l0,0l0,0
		c0,0,1.4-1.3,1.4-1.3c0.1-0.1,0-0.1,0-0.1c0-0.1-0.1,0-0.1,0L3.8,5.9L3.1,5.6c0,0-0.1,0-0.1-0.1c0-0.1,0.1-0.1,0.1-0.1l3-1.2
		c0,0,0.2-0.1,0.2,0.1L5.8,7z"/>
</g>
</svg>
