<?xml version="1.0" encoding="utf-8"?>
<!-- Generator: Adobe Illustrator 26.1.0, SVG Export Plug-In . SVG Version: 6.00 Build 0)  -->
<svg version="1.1" id="Слой_1" xmlns="http://www.w3.org/2000/svg" xmlns:xlink="http://www.w3.org/1999/xlink" x="0px" y="0px"
	 viewBox="0 0 9.8 11" style="enable-background:new 0 0 9.8 11;" xml:space="preserve">
<style type="text/css">
	.st0{fill:#3A97DE;}
</style>
<path class="st0" d="M8.1,3.5C7.9,3.6,7.6,3.7,7.4,3.7C7.6,3.5,7.8,3.3,7.9,3C7.7,3.1,7.4,3.2,7.1,3.3C6.6,2.7,5.8,2.7,5.2,3.2
	C4.9,3.5,4.7,4,4.8,4.5C3.8,4.4,2.8,3.9,2.1,3.1C2,3.3,1.9,3.5,1.9,3.8c0,0.4,0.2,0.9,0.6,1.1c-0.2,0-0.4-0.1-0.6-0.2v0
	C1.9,5.4,2.4,5.9,3,6c-0.1,0-0.2,0.1-0.4,0.1c-0.1,0-0.2,0-0.2,0C2.5,6.6,3,7,3.6,7C3.1,7.4,2.6,7.6,2,7.6c-0.1,0-0.2,0-0.3,0
	c0.6,0.4,1.3,0.6,2,0.6c2.1,0,3.8-1.6,3.8-3.7c0,0,0,0,0-0.1c0-0.1,0-0.1,0-0.2C7.7,4,7.9,3.8,8.1,3.5z"/>
</svg>
